<svg xmlns="http://www.w3.org/2000/svg" width="199" height="417" viewBox="0 -10 199 417" fill="none">
  <style>
  @keyframes a0_t {
      0%, 100% {
        transform: translateY(-2%);
      }
      50% {
        transform: translateY(1%);
      }
    }
    @keyframes a5_t { 0% { transform: translate(11.975735px,64.826457px) scale(0.558297,0.558297) translate(-39.957891px,-72.166419px); } 20% { transform: translate(11.975735px,64.826457px) scale(0.891905,0.891905) translate(-39.957891px,-72.166419px); } 40% { transform: translate(11.975735px,64.826457px) scale(0.669232,0.669232) translate(-39.957891px,-72.166419px); } 70% { transform: translate(11.975735px,64.826457px) scale(1.114577,1.114577) translate(-39.957891px,-72.166419px); } 100% { transform: translate(11.975735px,64.826457px) scale(0.557896,0.557896) translate(-39.957891px,-72.166419px); } }
    @keyframes a6_t { 0% { transform: translate(189.342563px,13.091257px) scale(0.616043,0.616043) translate(-176.002634px,-30.016336px); } 50% { transform: translate(189.342563px,13.091257px) scale(0.894721,0.894721) translate(-176.002634px,-30.016336px); } 100% { transform: translate(189.342563px,13.091257px) scale(0.619234,0.619234) translate(-176.002634px,-30.016336px); } }
    @keyframes a7_t { 0% { transform: translate(188.777731px,171.364057px) scale(0.980317,0.980317) translate(-185.106057px,-165.407418px); } 33.3% { transform: translate(188.777731px,171.364057px) scale(0.521941,0.521941) translate(-185.106057px,-165.407418px); } 100% { transform: translate(188.777731px,171.364057px) scale(0.963911,0.963911) translate(-185.106057px,-165.407418px); } }
  </style>

  <path d="M157.147 76.7481C156.709 64.4721 153.201 51.5382 152.105 51.9767C151.009 52.4151 155.393 57.0188 154.736 85.5167C154.736 87.7089 158.243 87.2704 157.147 76.7481Z" fill="#A1A1A1"/>
  <path d="M30.0036 313.937C28.2499 313.718 27.8115 316.349 28.0307 318.102C28.9076 327.967 37.6762 339.366 38.553 338.27C38.7722 338.051 31.0997 326.871 30.6613 317.445C30.4421 315.472 30.8805 314.157 30.0036 313.937Z" fill="#A1A1A1"/>
  <path d="M28.2499 334.105C28.4691 333.667 28.4692 334.105 24.7425 325.556C24.3041 324.679 23.8656 323.364 22.7696 323.802C20.139 325.337 27.3731 334.544 28.2499 334.105Z" fill="#A1A1A1"/>
  <path d="M162.192 77.1863C162.192 78.5016 163.507 78.5016 163.946 77.4055C164.603 74.9941 162.63 64.9103 162.411 64.6911C160.657 62.9373 162.192 63.1566 162.192 77.1863Z" fill="#A1A1A1"/>
  <g id="Stars">
    <path d="M45.3514 76.3099C51.051 74.3369 51.9279 73.8983 51.9279 72.8022C52.1471 71.2677 46.0091 69.7337 44.4746 69.2952C42.9401 69.076 42.7209 58.9917 40.9671 58.9917C40.5287 58.9917 40.3095 59.2109 40.0903 59.6493C36.8021 67.7603 37.2405 67.9797 35.4868 67.5413C33.5138 67.1029 31.5409 66.6642 29.7872 66.2258C28.2527 65.7874 27.3758 66.4454 28.4719 68.1992C32.1986 73.0219 33.0754 72.364 32.4178 74.1177C28.0335 85.5169 28.9103 83.5437 37.4597 78.2826C39.2134 77.1865 39.2134 80.9136 43.3785 84.6402C43.8169 84.8595 44.0361 85.5167 44.4746 85.2974C46.8859 84.6398 43.1593 77.1867 45.3514 76.3099Z" fill="#FFE066" style="animation: 2s linear infinite both a5_t;"/>
    <path d="M184.113 36.8517C183.237 35.5364 183.017 34.2209 182.36 32.9056C182.14 32.4672 182.36 32.2482 182.579 32.0289C184.333 30.056 185.429 27.8639 187.402 25.8909C188.059 25.2333 188.497 23.6986 185.428 24.5754C184.332 25.0139 182.359 25.4525 179.51 25.8909C178.633 26.1102 178.414 25.8905 178.195 25.0136C177.318 21.5062 175.345 14.4918 174.249 17.78C171.399 26.5486 175.564 25.2331 165.48 25.6715C161.753 25.8907 166.576 30.2752 169.864 32.029C171.18 32.6866 170.522 32.9058 169.645 40.7975C169.645 41.4552 169.207 42.5513 170.083 42.9897C170.96 43.4281 171.399 42.5513 171.837 41.8936C178.633 34.6595 175.126 35.5364 182.36 39.7015C185.648 41.4552 185.209 38.3862 184.113 36.8517Z" fill="#B3FF11" style="animation: 2s linear infinite both a6_t;"/>
    <path d="M183.238 176.492C182.142 168.161 181.266 170.354 188.938 167.285C192.446 165.969 186.527 163.339 182.8 162.681C181.046 162.462 180.828 152.378 179.293 152.378C178.855 152.378 178.635 152.159 175.566 160.05C174.251 163.558 158.906 153.474 170.524 165.75C171.401 166.627 171.182 166.407 168.332 174.08C167.894 175.395 168.332 176.272 169.867 175.176C176.662 170.353 176.662 171.011 177.32 171.888C179.731 175.614 183.238 181.533 183.238 176.492Z" fill="#B197FC" style="animation: 2s linear infinite both a7_t;"/>
  </g>
  <path d="M35.2674 112.699C30.6639 112.699 30.6639 119.715 35.2674 119.715C39.8709 119.495 40.0901 112.48 35.2674 112.699Z" fill="#BAF0E0"/>
  <path d="M59.1629 26.3284C59.1629 30.9319 66.1777 30.7125 66.1777 26.109C66.1777 21.2863 59.1629 21.0673 59.1629 26.3284Z" fill="#BAF0E0"/>
  <path d="M163.944 13.1761C168.548 13.1761 168.328 6.38025 164.163 6.38025C159.779 6.38025 159.341 13.1761 163.944 13.1761Z" fill="#FFEC99"/>
  <path d="M169.427 147.116C172.934 147.116 172.934 141.854 169.427 141.854C165.7 142.074 165.7 147.116 169.427 147.116Z" fill="#E1FBA9"/>
  <path d="M191.785 69.0756C191.785 65.5682 186.743 65.7874 186.743 69.0756C186.524 72.3639 191.785 72.5831 191.785 69.0756Z" fill="#D0BFFF"/>
  <path d="M174.03 188.109C177.099 188.109 176.879 183.505 174.03 183.505C170.961 183.505 170.961 188.109 174.03 188.109Z" fill="#E1FBA9"/>
  <path d="M72.0967 112.261C72.0967 109.192 67.4932 109.192 67.4932 112.042C67.4932 115.111 72.0967 115.33 72.0967 112.261Z" fill="#D0BFFF"/>
  <path d="M54.1192 28.0823C51.7078 28.3015 51.927 31.8089 54.3384 31.8089C56.7497 31.8089 56.5305 28.0823 54.1192 28.0823Z" fill="#E1FBA9"/>
  <path d="M191.787 117.961C189.376 117.961 189.376 121.688 192.006 121.688C194.417 121.688 194.199 117.961 191.787 117.961Z" fill="#BAF0E0"/>
  <path d="M160.66 35.0975C158.468 35.0975 158.687 38.6052 160.66 38.6052C162.414 38.386 163.071 35.0975 160.66 35.0975Z" fill="#FFEC99"/>
  <path d="M195.075 37.7276C195.075 39.7006 198.144 39.9202 198.144 37.5089C197.924 35.7551 195.075 35.5355 195.075 37.7276Z" fill="#BAF0E0"/>
  </svg>
