<svg xmlns="http://www.w3.org/2000/svg" width="199" height="417" viewBox="0 -10 199 417" fill="none">
  <style>
  @keyframes a0_t {
      0%, 100% {
        transform: translateY(-2%);
      }
      50% {
        transform: translateY(1%);
      }
    }
    @keyframes a5_t { 0% { transform: translate(11.975735px,64.826457px) scale(0.558297,0.558297) translate(-39.957891px,-72.166419px); } 20% { transform: translate(11.975735px,64.826457px) scale(0.891905,0.891905) translate(-39.957891px,-72.166419px); } 40% { transform: translate(11.975735px,64.826457px) scale(0.669232,0.669232) translate(-39.957891px,-72.166419px); } 70% { transform: translate(11.975735px,64.826457px) scale(1.114577,1.114577) translate(-39.957891px,-72.166419px); } 100% { transform: translate(11.975735px,64.826457px) scale(0.557896,0.557896) translate(-39.957891px,-72.166419px); } }
    @keyframes a6_t { 0% { transform: translate(189.342563px,13.091257px) scale(0.616043,0.616043) translate(-176.002634px,-30.016336px); } 50% { transform: translate(189.342563px,13.091257px) scale(0.894721,0.894721) translate(-176.002634px,-30.016336px); } 100% { transform: translate(189.342563px,13.091257px) scale(0.619234,0.619234) translate(-176.002634px,-30.016336px); } }
    @keyframes a7_t { 0% { transform: translate(188.777731px,171.364057px) scale(0.980317,0.980317) translate(-185.106057px,-165.407418px); } 33.3% { transform: translate(188.777731px,171.364057px) scale(0.521941,0.521941) translate(-185.106057px,-165.407418px); } 100% { transform: translate(188.777731px,171.364057px) scale(0.963911,0.963911) translate(-185.106057px,-165.407418px); } }
  </style>
  <g id="Person" style="animation: 2s linear infinite both a0_t;">
    <g transform="translate(87,210) translate(-82.9673,-208.387) scale(0.95)" style="animation: 2s linear infinite both Person_t;">
      <path d="M134.35 307.361C145.31 301.003 155.394 291.139 159.998 285.22C164.382 279.959 166.136 279.301 165.916 273.821C165.259 239.843 151.667 196 151.01 195.781C150.352 195.781 150.352 196.877 149.695 198.192C145.31 207.399 143.995 207.619 144.214 209.372C149.256 246.857 142.022 271.848 139.172 285.001C138.076 290.481 136.103 301.223 134.35 306.045C134.35 306.484 134.131 306.922 134.35 307.361Z" fill="#7B7B7B"/>
      <path d="M95.1088 258.256C94.8895 258.476 94.8896 258.037 70.776 297.934C68.803 301.003 68.5838 301.222 69.6799 301.661C72.0912 302.757 74.2834 304.511 76.6947 305.607C88.7515 310.649 84.148 309.991 87.217 301.661C88.5323 298.592 97.9586 259.352 95.1088 258.256Z" fill="#7B7B7B"/>
      <path d="M112.866 103.054C111.989 103.93 112.427 127.386 99.9319 125.852C99.7126 125.852 98.3974 125.413 98.1782 125.852C97.9589 126.29 98.1782 126.948 98.6166 126.948C99.7127 127.605 100.371 128.702 101.467 129.359C104.316 131.332 109.139 131.771 112.646 128.263C120.1 121.248 120.099 110.726 119.661 100.423C117.469 101.738 115.277 102.834 112.866 103.054Z" fill="#7B7B7B" />
      <path d="M78.2295 185.259C78.8872 186.135 79.9833 185.697 79.5448 184.601C77.5719 178.244 75.599 172.325 74.9413 167.721C73.4068 155.884 75.3797 148.65 74.7221 148.431C73.626 148.211 72.53 155.007 72.3107 156.98C71.4339 169.695 75.599 181.97 78.2295 185.259Z" fill="#3F3F3F"/>
      <path d="M68.3641 132.428C66.6104 133.743 62.8838 140.539 62.0069 149.746C61.1301 159.61 59.8148 156.98 66.8296 162.46C68.3641 163.776 68.8026 159.83 69.241 157.857C77.3519 124.098 102.781 103.491 68.3641 132.428Z" fill="#7B7B7B"/>
      <path d="M39.2098 233.706C38.333 239.844 24.084 259.135 20.7958 262.204C20.1382 262.861 21.4534 263.078 24.5224 267.024C27.3722 270.751 35.4832 277.327 37.8945 279.52C46.8823 287.192 50.3898 291.357 50.8282 286.754C58.5007 203.672 72.092 201.918 66.8308 202.576C60.2544 203.453 51.0474 201.48 45.7863 196.438C42.9365 193.808 44.471 205.207 0.408832 231.292C-2.87939 233.265 14.6578 255.625 17.0692 258.694C17.5076 259.133 17.946 259.133 18.3844 258.694C33.9487 241.595 37.6753 233.925 39.2098 233.706Z" fill="#7B7B7B"/>
      <path d="M108.701 203.892C108.482 196.439 107.824 189.424 101.029 184.82C92.0413 178.902 79.9845 188.985 74.7234 198.85C63.105 220.332 51.925 289.823 52.8019 293.331C53.0211 294.865 51.7058 293.112 49.2945 296.4C40.3067 308.237 40.3067 324.898 42.4988 331.474C44.2525 336.955 48.1984 336.516 49.7329 333.447C60.2552 311.964 52.8019 327.09 61.3513 305.826C62.0089 304.511 60.6936 303.853 60.036 305.388C56.3093 312.841 54.5556 321.61 48.1984 332.789C44.4718 339.147 40.3067 318.979 45.787 306.484C46.8831 304.072 52.1443 293.112 53.4596 295.523C56.3093 300.346 63.5434 301.223 63.5434 300.126C63.5434 299.469 57.1862 298.373 54.9941 294.646C53.2403 291.796 53.898 292.454 57.6246 275.136C67.0509 229.32 70.3391 196.22 91.3837 186.574C97.3024 183.944 104.975 187.671 106.29 199.727C107.386 210.029 103.002 227.347 99.7138 236.993C92.9182 256.503 69.9006 286.974 64.6395 299.469C64.4203 300.126 64.8587 301.003 65.5164 299.907C102.125 244.884 106.071 232.828 108.701 203.892Z" fill="#3F3F3F"/>
      <path d="M111.111 205.207C114.4 208.933 128.649 208.495 134.348 207.838C150.132 205.646 157.366 158.953 153.42 145.142C145.748 117.96 144.87 93.1885 143.994 81.3509C142.678 61.4024 139.609 53.9489 139.39 51.5375C138.513 45.838 127.114 21.0667 126.018 19.7514C123.826 16.6824 123.168 19.5322 116.811 20.8475C112.865 21.7244 108.92 22.3818 111.769 22.8202C115.058 23.2586 120.976 21.7246 123.607 19.9709C125.141 19.094 124.703 19.7514 130.183 32.2467C142.898 61.4022 140.705 73.24 142.678 98.2305C145.747 137.031 155.831 146.458 149.693 175.613C148.378 181.97 147.062 191.177 141.582 200.603C139.39 204.33 139.828 204.988 137.198 205.426C122.51 208.495 112.427 204.55 111.111 205.207Z" fill="#3F3F3F"/>
      <path d="M62.2273 386.936C62.4465 381.236 63.7618 379.921 64.6387 377.509C65.2963 375.756 64.8579 379.485 72.3112 381.019C72.7496 381.019 73.188 381.236 73.4073 380.798C73.4073 380.359 72.9688 380.359 72.5304 380.14C58.0622 373.564 70.9959 379.702 92.4789 312.841C102.344 282.151 104.317 245.764 101.467 246.202C99.0554 246.421 104.974 299.25 62.6657 378.167C60.0352 382.99 59.3775 390.224 62.2273 396.581C66.1732 405.788 81.299 423.766 82.8335 413.901C84.1488 405.79 75.161 388.689 74.7225 385.182C74.7225 384.744 74.5033 384.524 74.0649 384.524C71.8728 384.963 84.5872 413.024 80.4221 414.997C78.0108 415.655 61.7889 399.212 62.2273 386.936Z" fill="#3F3F3F"/>
      <path d="M76.0389 380.139C77.7926 380.797 109.359 346.819 122.074 320.951C129.527 306.045 136.981 285.877 140.707 246.857C140.707 246.857 143.776 208.713 140.927 208.933C139.173 208.933 141.146 215.509 138.515 242.472C135.446 276.231 130.842 302.318 113.086 331.693C98.618 355.587 76.2581 378.824 76.0389 380.139Z" fill="#3F3F3F"/>
      <path d="M35.9226 137.251C38.1147 136.593 38.5532 136.812 39.6492 138.566C42.0606 142.95 42.0606 147.334 42.499 147.773C43.3759 147.553 43.1567 146.677 43.1567 146.238C43.5951 133.085 35.7034 133.305 35.4842 136.593C34.6073 136.374 33.5112 136.154 32.6344 137.031C29.5654 139.881 30.4423 151.499 30.8807 155.007C36.5803 197.754 64.6397 208.057 73.4083 192.493C73.8467 191.616 73.1891 190.739 72.3122 191.835C69.9009 195.123 67.0511 197.315 62.886 197.096C32.8536 195.123 28.2501 130.674 35.265 139.223C38.1148 142.731 38.7724 145.8 38.9916 146.019C40.0877 148.211 40.3069 142.073 35.9226 137.251Z" fill="#3F3F3F"/>
      <path d="M112.866 103.053C127.115 101.08 132.156 81.5701 118.127 65.7867C96.6435 41.4538 64.8574 63.5947 72.5299 61.6218C81.2984 59.2104 94.0129 50.2222 111.55 62.279C120.319 68.417 128.649 84.2005 122.511 95.1612C115.496 107.656 100.589 97.792 99.9317 99.1073C99.4933 100.203 103.878 101.738 104.755 102.176C107.824 103.492 112.866 103.053 112.866 103.053Z" fill="#3F3F3F"/>
      <path d="M108.92 17.3404C108.263 14.0521 107.166 10.9834 108.262 7.69522C111.331 -1.95022 122.731 2.21486 122.95 14.2716C122.95 15.3676 122.512 16.2445 123.169 16.4637C125.142 16.9021 124.484 10.326 124.046 9.01073C118.565 -6.55351 100.59 -0.634713 108.044 16.6832C108.263 17.1216 108.482 17.3404 108.92 17.3404Z" fill="#3F3F3F"/>
      <path d="M89.4105 115.111C93.3564 113.138 93.1372 104.588 92.918 100.204C92.6988 97.5735 91.6027 95.1621 90.7258 92.5315C90.2874 91.4355 89.6298 91.2163 88.5337 91.4355C84.5878 92.5315 82.6149 89.901 83.2725 87.0512C83.9302 84.859 84.1494 84.8593 83.9302 84.64C83.711 84.2016 83.0533 84.6398 82.6149 84.859C78.669 87.928 82.6149 95.6003 88.5337 92.9698C89.1913 92.5313 89.4105 92.97 89.6298 93.6276C93.7948 106.78 89.6298 112.261 89.4105 115.111Z" fill="#3F3F3F"/>
      <path d="M109.796 24.3554C109.577 23.4785 108.92 23.9169 108.92 24.3554C108.92 26.5475 111.55 35.0965 112.646 45.838C113.304 51.976 113.085 56.1413 113.085 57.0181C113.962 63.5946 117.907 47.8113 109.796 24.3554Z" fill="#3F3F3F"/>
      <path d="M48.8555 135.278C48.6363 135.716 48.6363 135.716 49.0747 136.155C50.1708 137.47 53.0206 148.869 45.1289 153.472C39.6485 156.541 39.2101 156.761 38.3332 156.761C36.7987 156.761 37.2371 158.076 38.114 158.295C40.5253 158.953 47.1018 154.568 49.0747 152.157C54.5551 145.58 51.2669 131.551 48.8555 135.278Z" fill="#3F3F3F"/>
      <path d="M51.4854 151.939C54.3351 161.365 69.8994 171.887 70.7762 170.791C71.4339 169.914 65.7343 168.599 52.8006 151.939C51.7046 150.404 51.4854 151.062 51.4854 151.939Z" fill="#3F3F3F"/>
      <path d="M81.3001 76.528C81.9577 75.6511 81.7385 74.7742 80.4232 75.4319C74.7236 78.5009 73.6276 91.4348 79.1079 95.3806C80.204 96.2575 80.204 95.3804 79.9848 95.1612C78.8887 93.8459 75.3813 84.2005 81.3001 76.528Z" fill="#3F3F3F"/>
      <path d="M71.2149 75.2131C76.9145 59.8681 89.4097 62.4988 89.1905 60.5259C88.9713 59.2106 80.8604 60.7447 76.2569 64.4713C71.4341 68.6364 70.3381 74.3362 71.2149 75.2131Z" fill="#3F3F3F"/>
      <path d="M97.522 8.35332C98.1797 1.9961 103.441 1.9961 102.783 0.680813C102.125 -0.853689 97.522 1.55745 95.9875 7.03782C94.453 12.7374 102.564 19.3141 103.441 18.218C103.879 17.3412 97.0836 12.9569 97.522 8.35332Z" fill="#3F3F3F"/>
      <path d="M73.1903 83.9813C74.2864 83.7621 71.875 81.1315 78.8899 71.9245C80.2052 70.39 83.2742 68.417 83.9318 67.9786C84.5895 67.321 84.3703 66.4441 83.2742 66.8825C73.4095 70.1708 71.2174 84.2005 73.1903 83.9813Z" fill="#3F3F3F"/>
      <path d="M46.8833 144.705C46.8833 145.581 47.1025 146.458 46.8833 147.335C46.8833 147.554 46.6641 147.773 46.8833 147.773C48.637 148.431 50.6099 131.771 41.6221 132.648C40.3068 132.648 39.43 132.867 39.43 133.744C39.6492 136.594 46.8833 130.675 46.8833 144.705Z" fill="#3F3F3F"/>
      <path d="M101.468 7.25752C101.468 15.3684 109.14 19.0948 106.729 16.245C100.372 8.35326 103.002 2.21525 107.606 1.99604C108.482 1.99604 108.702 0.900292 107.606 0.681077C102.783 0.242649 101.249 5.06537 101.468 7.25752Z" fill="#3F3F3F"/>
      <path d="M105.414 23.0397C106.291 23.0397 108.921 22.8204 108.702 21.9436C108.483 20.6283 105.853 21.9436 103.66 20.8475C96.8648 17.3401 97.7416 13.175 96.8648 14.7095C95.3303 16.9017 100.591 23.4781 105.414 23.0397Z" fill="#3F3F3F"/>
      <path d="M111.771 90.9962C109.14 90.1194 106.729 88.8043 104.756 86.8314C104.098 86.1737 103.221 86.3927 103.221 87.0504C103.221 89.2425 102.782 91.2154 104.317 93.1884C105.851 95.1613 110.016 94.9421 109.797 94.2844C109.578 93.4076 107.386 94.0652 105.413 92.5307C103.878 91.2154 103.44 87.4886 104.536 88.5846C106.071 89.6807 110.894 92.5307 111.771 90.9962Z" fill="#3F3F3F"/>
      <path d="M110.673 85.5157C112.208 85.9542 114.181 83.3236 113.523 81.7891C112.646 79.5969 110.235 78.2819 107.823 74.7744C106.947 73.6784 104.974 74.3356 110.454 79.8159C112.865 82.4465 112.865 82.4465 110.892 85.2963C110.673 85.2963 110.673 85.2965 110.673 85.5157Z" fill="#3F3F3F"/>
      <path d="M101.688 63.5951C101.469 64.472 102.126 65.568 103.223 64.6912C105.853 62.499 111.772 63.1569 109.142 61.6224C107.388 60.7455 102.565 60.9645 101.688 63.5951Z" fill="#3F3F3F"/>
      <path d="M90.2876 75.6518C90.2876 75.871 90.2876 77.6245 91.1645 77.6245C91.8221 77.6245 90.5068 75.4326 94.4527 71.706C97.3025 69.0754 90.2876 69.0754 90.2876 75.6518Z" fill="#3F3F3F"/>
      <path d="M113.524 73.8978C115.716 71.4865 118.346 73.2404 118.785 72.3635C119.004 71.7059 116.593 70.1712 114.401 71.048C111.332 72.3633 112.428 75.2131 113.524 73.8978Z" fill="#3F3F3F"/>
      <path d="M97.96 81.1322C97.96 82.4475 98.6177 82.8857 99.2753 82.0088C101.248 79.3782 103.002 81.1319 103.002 79.3782C103.002 78.0629 98.1792 77.6247 97.96 81.1322Z" fill="#3F3F3F"/>
    </g>
  </g>
  <path d="M157.147 76.7481C156.709 64.4721 153.201 51.5382 152.105 51.9767C151.009 52.4151 155.393 57.0188 154.736 85.5167C154.736 87.7089 158.243 87.2704 157.147 76.7481Z" fill="#A1A1A1"/>
  <path d="M30.0036 313.937C28.2499 313.718 27.8115 316.349 28.0307 318.102C28.9076 327.967 37.6762 339.366 38.553 338.27C38.7722 338.051 31.0997 326.871 30.6613 317.445C30.4421 315.472 30.8805 314.157 30.0036 313.937Z" fill="#A1A1A1"/>
  <path d="M28.2499 334.105C28.4691 333.667 28.4692 334.105 24.7425 325.556C24.3041 324.679 23.8656 323.364 22.7696 323.802C20.139 325.337 27.3731 334.544 28.2499 334.105Z" fill="#A1A1A1"/>
  <path d="M162.192 77.1863C162.192 78.5016 163.507 78.5016 163.946 77.4055C164.603 74.9941 162.63 64.9103 162.411 64.6911C160.657 62.9373 162.192 63.1566 162.192 77.1863Z" fill="#A1A1A1"/>
  <g id="Stars">
    <path d="M45.3514 76.3099C51.051 74.3369 51.9279 73.8983 51.9279 72.8022C52.1471 71.2677 46.0091 69.7337 44.4746 69.2952C42.9401 69.076 42.7209 58.9917 40.9671 58.9917C40.5287 58.9917 40.3095 59.2109 40.0903 59.6493C36.8021 67.7603 37.2405 67.9797 35.4868 67.5413C33.5138 67.1029 31.5409 66.6642 29.7872 66.2258C28.2527 65.7874 27.3758 66.4454 28.4719 68.1992C32.1986 73.0219 33.0754 72.364 32.4178 74.1177C28.0335 85.5169 28.9103 83.5437 37.4597 78.2826C39.2134 77.1865 39.2134 80.9136 43.3785 84.6402C43.8169 84.8595 44.0361 85.5167 44.4746 85.2974C46.8859 84.6398 43.1593 77.1867 45.3514 76.3099Z" fill="#FFE066" style="animation: 2s linear infinite both a5_t;"/>
    <path d="M184.113 36.8517C183.237 35.5364 183.017 34.2209 182.36 32.9056C182.14 32.4672 182.36 32.2482 182.579 32.0289C184.333 30.056 185.429 27.8639 187.402 25.8909C188.059 25.2333 188.497 23.6986 185.428 24.5754C184.332 25.0139 182.359 25.4525 179.51 25.8909C178.633 26.1102 178.414 25.8905 178.195 25.0136C177.318 21.5062 175.345 14.4918 174.249 17.78C171.399 26.5486 175.564 25.2331 165.48 25.6715C161.753 25.8907 166.576 30.2752 169.864 32.029C171.18 32.6866 170.522 32.9058 169.645 40.7975C169.645 41.4552 169.207 42.5513 170.083 42.9897C170.96 43.4281 171.399 42.5513 171.837 41.8936C178.633 34.6595 175.126 35.5364 182.36 39.7015C185.648 41.4552 185.209 38.3862 184.113 36.8517Z" fill="#B3FF11" style="animation: 2s linear infinite both a6_t;"/>
    <path d="M183.238 176.492C182.142 168.161 181.266 170.354 188.938 167.285C192.446 165.969 186.527 163.339 182.8 162.681C181.046 162.462 180.828 152.378 179.293 152.378C178.855 152.378 178.635 152.159 175.566 160.05C174.251 163.558 158.906 153.474 170.524 165.75C171.401 166.627 171.182 166.407 168.332 174.08C167.894 175.395 168.332 176.272 169.867 175.176C176.662 170.353 176.662 171.011 177.32 171.888C179.731 175.614 183.238 181.533 183.238 176.492Z" fill="#B197FC" style="animation: 2s linear infinite both a7_t;"/>
  </g>
  <path d="M35.2674 112.699C30.6639 112.699 30.6639 119.715 35.2674 119.715C39.8709 119.495 40.0901 112.48 35.2674 112.699Z" fill="#BAF0E0"/>
  <path d="M59.1629 26.3284C59.1629 30.9319 66.1777 30.7125 66.1777 26.109C66.1777 21.2863 59.1629 21.0673 59.1629 26.3284Z" fill="#BAF0E0"/>
  <path d="M163.944 13.1761C168.548 13.1761 168.328 6.38025 164.163 6.38025C159.779 6.38025 159.341 13.1761 163.944 13.1761Z" fill="#FFEC99"/>
  <path d="M169.427 147.116C172.934 147.116 172.934 141.854 169.427 141.854C165.7 142.074 165.7 147.116 169.427 147.116Z" fill="#E1FBA9"/>
  <path d="M191.785 69.0756C191.785 65.5682 186.743 65.7874 186.743 69.0756C186.524 72.3639 191.785 72.5831 191.785 69.0756Z" fill="#D0BFFF"/>
  <path d="M174.03 188.109C177.099 188.109 176.879 183.505 174.03 183.505C170.961 183.505 170.961 188.109 174.03 188.109Z" fill="#E1FBA9"/>
  <path d="M72.0967 112.261C72.0967 109.192 67.4932 109.192 67.4932 112.042C67.4932 115.111 72.0967 115.33 72.0967 112.261Z" fill="#D0BFFF"/>
  <path d="M54.1192 28.0823C51.7078 28.3015 51.927 31.8089 54.3384 31.8089C56.7497 31.8089 56.5305 28.0823 54.1192 28.0823Z" fill="#E1FBA9"/>
  <path d="M191.787 117.961C189.376 117.961 189.376 121.688 192.006 121.688C194.417 121.688 194.199 117.961 191.787 117.961Z" fill="#BAF0E0"/>
  <path d="M160.66 35.0975C158.468 35.0975 158.687 38.6052 160.66 38.6052C162.414 38.386 163.071 35.0975 160.66 35.0975Z" fill="#FFEC99"/>
  <path d="M195.075 37.7276C195.075 39.7006 198.144 39.9202 198.144 37.5089C197.924 35.7551 195.075 35.5355 195.075 37.7276Z" fill="#BAF0E0"/>
  </svg>